<svg xmlns="http://www.w3.org/2000/svg" viewBox="0 0 256 236">
  <path fill="#E24329" d="m128.075 236.075 47.104-144.97H80.97l47.104 144.97z"/>
  <path fill="#FC6D26" d="M128.075 236.074 80.97 91.104H14.956l113.119 144.97z"/>
  <path fill="#FCA326" d="M14.956 91.104.642 135.16a9.752 9.752 0 0 0 3.542 10.903l123.891 90.012-113.12-144.97z"/>
  <path fill="#E24329" d="M14.956 91.105H80.97L52.601 3.79c-1.517-4.674-8.129-4.674-9.646 0L14.956 91.104z"/>
  <path fill="#FC6D26" d="m128.075 236.074 47.104-144.97h66.015l-113.12 144.97z"/>
  <path fill="#FCA326" d="m241.194 91.104 14.314 44.056a9.752 9.752 0 0 1-3.543 10.903l-123.89 90.012 113.12-144.97z"/>
  <path fill="#E24329" d="M241.194 91.105h-66.015l28.37-87.315c1.517-4.674 8.128-4.674 9.645 0l28 87.315z"/>
</svg>
